<?xml version="1.0"?>
<svg xmlns="http://www.w3.org/2000/svg" height="512px" viewBox="0 -7 512.00055 512" width="512px" class=""><g><path d="m500.152344 108.167969c-14.820313-30.730469-43.480469-58.332031-80.703125-77.722657-38.234375-19.917968-83.050781-30.445312-129.601563-30.445312-9.449218 0-19.105468.460938-28.722656 1.347656-9.429688-.890625-18.972656-1.347656-28.59375-1.347656-47.234375 0-95.257812 11.128906-135.214844 31.339844-40.109375 20.28125-70.609375 48.890625-85.875 80.558594-9.6875 20.089843-13.25 40.90625-10.585937 61.878906 2.699219 21.246094 11.777343 42.101562 26.992187 62.03125v44.050781c0 5.519531 4.472656 9.992187 9.992188 9.992187 5.519531 0 9.992187-4.472656 9.992187-9.992187v-47.488281c0-2.257813-.765625-4.453125-2.171875-6.222656-27.34375-34.359376-32.953125-70.863282-16.21875-105.570313 28.109375-58.285156 113.519532-100.59375 203.089844-100.59375 85.730469 0 164.816406 39.839844 192.324219 96.878906 17.453125 36.195313 11.835937 73.988281-16.253907 109.285157-1.40625 1.769531-2.175781 3.964843-2.175781 6.222656v217.105468c0 15.734376-12.796875 28.535157-28.527343 28.535157h-301.5625c-15.714844 0-28.503907-12.800781-28.503907-28.535157v-89.753906c0-5.519531-4.472656-9.996094-9.992187-9.996094-5.519532 0-9.992188 4.476563-9.992188 9.996094v89.753906c0 26.757813 21.753906 48.523438 48.488282 48.523438h358.878906c26.734375 0 48.488281-21.765625 48.488281-48.519531v-213.675781c30.84375-40.429688 36.703125-85.628907 16.449219-127.636719zm-34.261719 117.980469c-1.40625 1.769531-2.171875 3.964843-2.171875 6.222656v217.105468c0 15.734376-12.789062 28.535157-28.503906 28.535157h-18.101563c5.847657-8.011719 9.300781-17.878907 9.300781-28.535157v-213.671874c30.839844-40.425782 36.699219-85.621094 16.441407-127.625-14.820313-30.734376-43.484375-58.339844-80.710938-77.730469-1.089843-.566407-2.1875-1.125-3.285156-1.679688-.035156-.015625-.066406-.035156-.101563-.054687 56.75 14.71875 103.527344 46.941406 123.390626 88.136718 17.457031 36.199219 11.835937 73.996094-16.257813 109.296876zm0 0" data-original="#000000" class="active-path" data-old_color="#FCFCFC" fill="#FFFFFF"/><path d="m138.246094 161.796875c-15.589844 0-28.277344 12.964844-28.277344 28.902344 0 15.933593 12.6875 28.902343 28.277344 28.902343 15.59375 0 28.277344-12.96875 28.277344-28.902343 0-15.9375-12.683594-28.902344-28.277344-28.902344zm0 37.816406c-4.570313 0-8.289063-4-8.289063-8.914062 0-4.917969 3.71875-8.917969 8.289063-8.917969 4.574218 0 8.292968 4 8.292968 8.917969 0 4.914062-3.71875 8.914062-8.292968 8.914062zm0 0" data-original="#000000" class="active-path" data-old_color="#FCFCFC" fill="#FFFFFF"/><path d="m286.25 133.046875c-15.59375 0-28.277344 12.96875-28.277344 28.90625 0 15.933594 12.683594 28.902344 28.277344 28.902344 15.605469 0 28.304688-12.96875 28.304688-28.902344 0-15.9375-12.699219-28.90625-28.304688-28.90625zm0 37.820313c-4.574219 0-8.292969-4-8.292969-8.917969 0-4.914063 3.71875-8.914063 8.292969-8.914063 4.585938 0 8.320312 4 8.320312 8.914063 0 4.917969-3.734374 8.917969-8.320312 8.917969zm0 0" data-original="#000000" class="active-path" data-old_color="#FCFCFC" fill="#FFFFFF"/><path d="m276.652344 325.984375c0 15.9375 12.699218 28.902344 28.304687 28.902344 15.59375 0 28.277344-12.964844 28.277344-28.902344s-12.683594-28.902344-28.277344-28.902344c-15.605469 0-28.304687 12.964844-28.304687 28.902344zm36.597656 0c0 4.917969-3.71875 8.917969-8.292969 8.917969-4.585937 0-8.320312-4-8.320312-8.917969s3.734375-8.917969 8.320312-8.917969c4.574219 0 8.292969 4 8.292969 8.917969zm0 0" data-original="#000000" class="active-path" data-old_color="#FCFCFC" fill="#FFFFFF"/><path d="m145.148438 363.519531c0 15.9375 12.6875 28.90625 28.277343 28.90625 15.59375 0 28.277344-12.96875 28.277344-28.90625 0-15.933593-12.683594-28.902343-28.277344-28.902343-15.589843 0-28.277343 12.96875-28.277343 28.902343zm28.277343-8.914062c4.570313 0 8.292969 4 8.292969 8.914062 0 4.917969-3.71875 8.917969-8.292969 8.917969-4.570312 0-8.289062-4-8.289062-8.917969 0-4.914062 3.71875-8.914062 8.289062-8.914062zm0 0" data-original="#000000" class="active-path" data-old_color="#FCFCFC" fill="#FFFFFF"/><path d="m37.839844 329.796875c5.519531 0 9.996094-4.472656 9.996094-9.992187v-.199219c0-5.515625-4.476563-9.992188-9.996094-9.992188-5.515625 0-9.992188 4.476563-9.992188 9.992188v.199219c0 5.519531 4.472656 9.992187 9.992188 9.992187zm0 0" data-original="#000000" class="active-path" data-old_color="#FCFCFC" fill="#FFFFFF"/></g> </svg>
